<svg width="1175" height="280" viewBox="0 0 1175 280" fill="none" xmlns="http://www.w3.org/2000/svg">
<mask id="mask0_0_1" style="mask-type:luminance" maskUnits="userSpaceOnUse" x="40" y="40" width="1095" height="200">
<path d="M1135 40H40V240H1135V40Z" fill="white"/>
</mask>
<g mask="url(#mask0_0_1)">
<path d="M116.048 133.644C116.048 128.378 120.304 124.11 125.554 124.11H138.229C143.479 124.11 147.735 128.378 147.735 133.644V146.356C147.735 151.622 143.479 155.89 138.229 155.89H125.554C120.304 155.89 116.048 151.622 116.048 146.356V133.644Z" fill="#7C44EA"/>
<path d="M40 133.644C40 128.378 44.256 124.11 49.506 124.11H62.1807C67.4308 124.11 71.6868 128.378 71.6868 133.644V146.356C71.6868 151.622 67.4308 155.89 62.1807 155.89H49.506C44.256 155.89 40 151.622 40 146.356V133.644Z" fill="#7C44EA"/>
<path d="M78.0241 101.863C78.0241 96.5979 82.2801 92.3293 87.5302 92.3293H100.205C105.455 92.3293 109.711 96.5979 109.711 101.863V114.576C109.711 119.841 105.455 124.11 100.205 124.11H87.5302C82.2801 124.11 78.0241 119.841 78.0241 114.576V101.863Z" fill="#7C44EA"/>
<path d="M78.0241 165.424C78.0241 160.159 82.2801 155.89 87.5302 155.89H100.205C105.455 155.89 109.711 160.159 109.711 165.424V178.137C109.711 183.402 105.455 187.671 100.205 187.671H87.5302C82.2801 187.671 78.0241 183.402 78.0241 178.137V165.424Z" fill="#7C44EA"/>
<path d="M116.048 55.9176C116.049 43.0997 130.402 35.5567 140.91 42.8528L262.004 126.935C271.104 133.254 271.104 146.746 262.004 153.065L140.91 237.147C130.402 244.443 116.048 236.9 116.048 224.082V200.383C116.048 193.362 121.723 187.671 128.723 187.671H135.06C142.06 187.671 147.735 181.979 147.735 174.959V168.602C147.735 161.582 153.41 155.89 160.41 155.89H166.747C173.747 155.89 179.422 150.199 179.422 143.178V136.822C179.422 129.801 173.747 124.11 166.747 124.11H160.41C153.41 124.11 147.735 118.418 147.735 111.397V105.041C147.735 98.0207 142.06 92.3292 135.06 92.3292H128.723C121.723 92.3292 116.048 86.6378 116.048 79.617V55.9176Z" fill="#7C44EA"/>
<path d="M147.735 111.397C147.735 111.397 147.735 124.11 135.06 124.11V136.822H147.735C147.735 136.822 147.735 124.11 160.41 124.11C160.727 124.11 160.41 111.398 160.41 111.398L147.735 111.397Z" fill="#7C44EA"/>
<path d="M404.89 170.408V152.757H392.825C382.399 152.757 377.186 147.842 377.186 138.011V132.426C377.186 129.894 378.377 128.628 380.761 128.628H426.339C428.722 128.628 429.914 129.894 429.914 132.426V178.228C429.914 180.462 429.541 182.249 428.797 183.59C428.201 184.93 426.86 186.345 424.775 187.835C417.923 192.75 411.37 196.176 405.114 198.112C398.858 199.9 391.708 200.793 383.665 200.793C372.792 200.793 362.663 198.708 353.28 194.538C343.896 190.367 336.299 183.59 330.49 174.206C324.83 164.673 322 151.938 322 136.001C322 122.744 324.532 111.35 329.597 101.817C334.661 92.2842 341.885 84.9857 351.269 79.9214C360.652 74.7082 371.824 72.1016 384.782 72.1016C390.889 72.1016 396.251 72.4739 400.869 73.2187C405.486 73.8145 409.88 74.8571 414.051 76.3466C419.264 78.134 422.466 80.5917 423.658 83.7196C424.998 86.8475 425.073 90.7947 423.881 95.561L422.317 101.817C421.87 103.753 420.902 104.721 419.413 104.721C418.519 104.721 417.328 104.349 415.838 103.604C411.221 101.519 406.529 99.8805 401.762 98.689C396.996 97.4974 392.081 96.9016 387.016 96.9016C375.547 96.9016 366.461 100.104 359.759 106.509C353.056 112.765 349.705 123.191 349.705 137.788C349.705 150.002 352.609 159.46 358.418 166.163C364.376 172.866 372.643 176.217 383.218 176.217C387.538 176.217 391.336 175.77 394.613 174.876C397.89 173.983 401.316 172.493 404.89 170.408Z" fill="#332F2F"/>
<path d="M503.771 188.952C500.941 192.527 497.366 195.357 493.047 197.442C488.727 199.527 483.961 200.57 478.747 200.57C470.257 200.57 463.182 198.559 457.522 194.538C451.862 190.367 447.543 184.856 444.564 178.004C441.734 171.153 440.319 163.556 440.319 155.215C440.319 146.874 441.883 139.352 445.011 132.649C448.138 125.798 452.607 120.435 458.416 116.563C464.225 112.541 471.151 110.53 479.194 110.53C486.046 110.53 491.632 111.722 495.951 114.105C500.42 116.488 503.92 119.095 506.452 121.925C508.09 118.797 510.474 116.563 513.602 115.222C516.878 113.882 520.826 113.212 525.443 113.212H526.56C528.496 113.212 529.465 114.18 529.465 116.116V195.655C529.465 197.591 528.496 198.559 526.56 198.559H506.675C504.739 198.559 503.771 197.591 503.771 195.655V188.952ZM485.674 176.664C487.61 176.664 489.993 176.217 492.823 175.323C495.653 174.281 498.185 172.27 500.42 169.291C502.654 166.163 503.771 161.545 503.771 155.439C503.771 149.332 502.654 144.863 500.42 142.033C498.334 139.203 495.877 137.416 493.047 136.671C490.217 135.777 487.759 135.33 485.674 135.33C483.737 135.33 481.28 135.777 478.301 136.671C475.322 137.416 472.641 139.203 470.257 142.033C467.874 144.863 466.683 149.332 466.683 155.439C466.683 161.545 467.8 166.163 470.034 169.291C472.417 172.27 475.098 174.281 478.077 175.323C481.205 176.217 483.737 176.664 485.674 176.664Z" fill="#332F2F"/>
<path d="M566.502 123.042C569.481 119.467 572.907 116.637 576.78 114.552C580.652 112.318 584.972 111.201 589.738 111.201C602.846 111.201 612.23 116.041 617.89 125.723C620.869 121.702 624.592 118.276 629.061 115.446C633.678 112.616 638.817 111.201 644.477 111.201C655.052 111.201 663.319 114.403 669.277 120.808C675.235 127.064 678.214 136.82 678.214 150.076V195.655C678.214 197.591 677.246 198.559 675.309 198.559H655.648C653.712 198.559 652.744 197.591 652.744 195.655V152.311C652.744 145.608 651.329 140.99 648.499 138.458C645.669 135.777 642.317 134.437 638.445 134.437C634.87 134.437 631.444 135.777 628.167 138.458C625.039 140.99 623.475 145.533 623.475 152.087V195.655C623.475 197.591 622.507 198.559 620.571 198.559H600.686C598.75 198.559 597.782 197.591 597.782 195.655V152.311C597.782 145.608 596.367 140.99 593.536 138.458C590.855 135.777 587.579 134.437 583.706 134.437C579.982 134.437 576.482 135.777 573.205 138.458C570.077 140.99 568.513 145.533 568.513 152.087V195.655C568.513 197.591 567.545 198.559 565.609 198.559H545.947C544.011 198.559 543.043 197.591 543.043 195.655V116.116C543.043 114.18 544.011 113.212 545.947 113.212H547.064C551.98 113.212 556.076 113.956 559.353 115.446C562.63 116.935 565.013 119.467 566.502 123.042Z" fill="#332F2F"/>
<path d="M715.206 164.822C716.994 174.504 724.367 179.345 737.325 179.345C742.389 179.345 746.783 178.972 750.507 178.228C754.231 177.334 758.253 175.919 762.572 173.983C764.359 173.238 765.625 172.866 766.37 172.866C768.158 172.866 769.051 173.983 769.051 176.217C769.051 179.196 767.934 182.622 765.7 186.494C763.615 190.367 760.04 193.718 754.976 196.548C749.911 199.378 742.836 200.793 733.75 200.793C720.196 200.793 709.323 196.772 701.131 188.729C692.938 180.536 688.842 169.44 688.842 155.439C688.842 146.799 690.555 139.129 693.981 132.426C697.407 125.723 702.322 120.435 708.727 116.563C715.132 112.69 722.803 110.754 731.74 110.754C740.825 110.754 748.198 112.616 753.859 116.339C759.668 120.063 763.913 124.904 766.594 130.862C769.424 136.671 770.839 142.852 770.839 149.406C770.839 152.236 770.764 154.619 770.615 156.556C770.615 158.492 770.541 160.13 770.392 161.471C770.243 163.705 768.828 164.822 766.147 164.822H715.206ZM715.43 146.948H745.368C745.666 145.161 745.443 143.15 744.698 140.916C743.953 138.682 742.538 136.745 740.453 135.107C738.517 133.469 735.612 132.649 731.74 132.649C726.675 132.649 722.728 133.99 719.898 136.671C717.217 139.203 715.728 142.629 715.43 146.948Z" fill="#332F2F"/>
<path d="M852.137 134.437C859.138 136.373 864.723 139.948 868.894 145.161C873.213 150.225 875.373 156.332 875.373 163.482C875.373 174.653 871.947 183.292 865.095 189.399C858.244 195.506 847.817 198.559 833.816 198.559H786.45C784.514 198.559 783.546 197.591 783.546 195.655V77.2403C783.546 75.304 784.514 74.3358 786.45 74.3358H829.571C842.977 74.3358 853.254 77.2403 860.404 83.0493C867.553 88.7094 871.128 96.9016 871.128 107.626C871.128 112.839 870.16 117.233 868.223 120.808C866.287 124.234 863.829 127.064 860.85 129.298C858.02 131.383 855.116 133.096 852.137 134.437ZM809.686 123.042H831.359C836.572 123.042 840.072 121.627 841.859 118.797C843.796 115.818 844.764 112.765 844.764 109.637C844.764 106.36 843.647 103.455 841.413 100.923C839.327 98.3911 835.678 97.125 830.465 97.125H809.686V123.042ZM809.686 175.993H830.688C832.922 175.993 835.38 175.77 838.061 175.323C840.891 174.876 843.274 173.61 845.211 171.525C847.296 169.291 848.339 165.642 848.339 160.577C848.339 156.258 846.924 152.608 844.094 149.629C841.413 146.502 837.019 144.938 830.912 144.938H809.686V175.993Z" fill="#332F2F"/>
<path d="M908.097 200.793L877.042 116.116C876.744 115.371 876.744 114.701 877.042 114.105C877.488 113.509 878.01 113.212 878.606 113.212H883.968C889.181 113.212 893.277 113.882 896.256 115.222C899.384 116.414 901.991 118.574 904.076 121.702C906.161 124.829 908.172 129.298 910.108 135.107L922.173 169.961L940.27 116.116C940.866 114.18 942.058 113.212 943.845 113.212H963.953C964.698 113.212 965.145 113.509 965.294 114.105C965.592 114.701 965.592 115.371 965.294 116.116L936.696 196.995C934.164 204.294 931.259 210.922 927.982 216.88C924.854 222.987 920.982 227.828 916.364 231.402C911.747 234.977 905.863 236.765 898.714 236.765C893.203 236.765 888.66 235.573 885.085 233.19C881.51 230.956 878.829 228.126 877.042 224.7C875.403 221.274 874.584 217.997 874.584 214.869C874.584 213.678 874.807 212.56 875.254 211.518C875.701 210.624 876.446 210.177 877.488 210.177C878.233 210.177 878.904 210.401 879.499 210.848C883.819 213.678 887.989 215.093 892.011 215.093C896.182 215.093 899.458 213.826 901.842 211.294C904.225 208.911 906.31 205.411 908.097 200.793Z" fill="#332F2F"/>
<path d="M987.445 136.001H972.699C970.763 136.001 969.795 135.033 969.795 133.096V116.116C969.795 114.18 970.763 113.212 972.699 113.212H987.445V86.1772C987.445 84.2409 988.339 83.2727 990.126 83.2727H991.243C998.393 83.2727 1003.76 84.9112 1007.33 88.1881C1011.05 91.4649 1012.92 97.125 1012.92 105.168V113.212H1031.24C1033.18 113.212 1034.15 114.18 1034.15 116.116V133.096C1034.15 135.033 1033.18 136.001 1031.24 136.001H1012.92V195.655C1012.92 197.591 1011.95 198.559 1010.01 198.559H990.126C988.339 198.559 987.445 197.591 987.445 195.655V136.001Z" fill="#332F2F"/>
<path d="M1061.48 164.822C1063.27 174.504 1070.64 179.345 1083.6 179.345C1088.66 179.345 1093.07 178.972 1096.79 178.228C1100.52 177.334 1104.53 175.919 1108.85 173.983C1110.63 173.238 1111.91 172.866 1112.66 172.866C1114.44 172.866 1115.33 173.983 1115.33 176.217C1115.33 179.196 1114.21 182.622 1111.98 186.494C1109.89 190.367 1106.33 193.718 1101.26 196.548C1096.2 199.378 1089.12 200.793 1080.04 200.793C1066.48 200.793 1055.61 196.772 1047.42 188.729C1039.22 180.536 1035.12 169.44 1035.12 155.439C1035.12 146.799 1036.84 139.129 1040.27 132.426C1043.69 125.723 1048.61 120.435 1055.01 116.563C1061.42 112.69 1069.09 110.754 1078.02 110.754C1087.11 110.754 1094.48 112.616 1100.14 116.339C1105.95 120.063 1110.19 124.904 1112.88 130.862C1115.71 136.671 1117.11 142.852 1117.11 149.406C1117.11 152.236 1117.05 154.619 1116.9 156.556C1116.9 158.492 1116.83 160.13 1116.68 161.471C1116.53 163.705 1115.11 164.822 1112.43 164.822H1061.48ZM1061.71 146.948H1091.65C1091.95 145.161 1091.72 143.15 1090.97 140.916C1090.23 138.682 1088.81 136.745 1086.73 135.107C1084.79 133.469 1081.9 132.649 1078.02 132.649C1072.96 132.649 1069.01 133.99 1066.18 136.671C1063.5 139.203 1062.01 142.629 1061.71 146.948Z" fill="#332F2F"/>
</g>
<rect x="40" y="4" width="99.6641" height="30" rx="3" fill="#444444"/>
<rect x="40.5" y="4.5" width="98.6641" height="29" rx="2.5" stroke="white" stroke-opacity="0.0980392"/>
<path d="M47.7656 14V22H46.8438V14H47.7656ZM51.8916 22.125C51.3499 22.125 50.8747 21.9961 50.4658 21.7383C50.0596 21.4805 49.7419 21.1198 49.5127 20.6562C49.2861 20.1927 49.1729 19.651 49.1729 19.0312C49.1729 18.4062 49.2861 17.8607 49.5127 17.3945C49.7419 16.9284 50.0596 16.5664 50.4658 16.3086C50.8747 16.0508 51.3499 15.9219 51.8916 15.9219C52.4333 15.9219 52.9072 16.0508 53.3135 16.3086C53.7223 16.5664 54.04 16.9284 54.2666 17.3945C54.4958 17.8607 54.6104 18.4062 54.6104 19.0312C54.6104 19.651 54.4958 20.1927 54.2666 20.6562C54.04 21.1198 53.7223 21.4805 53.3135 21.7383C52.9072 21.9961 52.4333 22.125 51.8916 22.125ZM51.8916 21.2969C52.3031 21.2969 52.6416 21.1914 52.9072 20.9805C53.1729 20.7695 53.3695 20.4922 53.4971 20.1484C53.6247 19.8047 53.6885 19.4323 53.6885 19.0312C53.6885 18.6302 53.6247 18.2565 53.4971 17.9102C53.3695 17.5638 53.1729 17.2839 52.9072 17.0703C52.6416 16.8568 52.3031 16.75 51.8916 16.75C51.4801 16.75 51.1416 16.8568 50.876 17.0703C50.6104 17.2839 50.4137 17.5638 50.2861 17.9102C50.1585 18.2565 50.0947 18.6302 50.0947 19.0312C50.0947 19.4323 50.1585 19.8047 50.2861 20.1484C50.4137 20.4922 50.6104 20.7695 50.876 20.9805C51.1416 21.1914 51.4801 21.2969 51.8916 21.2969ZM58.4395 24.375C57.9941 24.375 57.6113 24.3177 57.291 24.2031C56.9707 24.0911 56.7038 23.9427 56.4902 23.7578C56.2793 23.5755 56.1113 23.3802 55.9863 23.1719L56.7207 22.6563C56.804 22.7656 56.9095 22.8906 57.0371 23.0312C57.1647 23.1745 57.3392 23.2982 57.5605 23.4023C57.7845 23.5091 58.0775 23.5625 58.4395 23.5625C58.9238 23.5625 59.3236 23.4453 59.6387 23.2109C59.9538 22.9766 60.1113 22.6094 60.1113 22.1094V20.8906H60.0332C59.9655 21 59.8691 21.1354 59.7441 21.2969C59.6217 21.4557 59.4447 21.5977 59.2129 21.7227C58.9837 21.8451 58.6738 21.9062 58.2832 21.9062C57.7988 21.9062 57.3639 21.7917 56.9785 21.5625C56.5957 21.3333 56.2923 21 56.0684 20.5625C55.847 20.125 55.7363 19.5937 55.7363 18.9687C55.7363 18.3542 55.8444 17.819 56.0605 17.3633C56.2767 16.9049 56.5775 16.5508 56.9629 16.3008C57.3483 16.0482 57.7936 15.9219 58.2988 15.9219C58.6895 15.9219 58.9993 15.987 59.2285 16.1172C59.4603 16.2448 59.6374 16.3906 59.7598 16.5547C59.8848 16.7161 59.9811 16.849 60.0488 16.9531H60.1426V16H61.0332V22.1719C61.0332 22.6875 60.916 23.1068 60.6816 23.4297C60.4499 23.7552 60.1374 23.9935 59.7441 24.1445C59.3535 24.2982 58.9186 24.375 58.4395 24.375ZM58.4082 21.0781C58.778 21.0781 59.0905 20.9935 59.3457 20.8242C59.6009 20.6549 59.7949 20.4115 59.9277 20.0938C60.0605 19.776 60.127 19.3958 60.127 18.9531C60.127 18.5208 60.0618 18.1393 59.9316 17.8086C59.8014 17.4779 59.6087 17.2187 59.3535 17.0312C59.0983 16.8437 58.7832 16.75 58.4082 16.75C58.0176 16.75 57.6921 16.849 57.4316 17.0469C57.1738 17.2448 56.9798 17.5104 56.8496 17.8438C56.722 18.1771 56.6582 18.5469 56.6582 18.9531C56.6582 19.3698 56.7233 19.7383 56.8535 20.0586C56.9863 20.3763 57.1816 20.6263 57.4395 20.8086C57.6999 20.9883 58.0228 21.0781 58.4082 21.0781ZM65.1582 22.125C64.6165 22.125 64.1413 21.9961 63.7324 21.7383C63.3262 21.4805 63.0085 21.1198 62.7793 20.6562C62.5527 20.1927 62.4395 19.651 62.4395 19.0312C62.4395 18.4062 62.5527 17.8607 62.7793 17.3945C63.0085 16.9284 63.3262 16.5664 63.7324 16.3086C64.1413 16.0508 64.6165 15.9219 65.1582 15.9219C65.6999 15.9219 66.1738 16.0508 66.5801 16.3086C66.9889 16.5664 67.3066 16.9284 67.5332 17.3945C67.7624 17.8607 67.877 18.4062 67.877 19.0312C67.877 19.651 67.7624 20.1927 67.5332 20.6562C67.3066 21.1198 66.9889 21.4805 66.5801 21.7383C66.1738 21.9961 65.6999 22.125 65.1582 22.125ZM65.1582 21.2969C65.5697 21.2969 65.9082 21.1914 66.1738 20.9805C66.4395 20.7695 66.6361 20.4922 66.7637 20.1484C66.8913 19.8047 66.9551 19.4323 66.9551 19.0312C66.9551 18.6302 66.8913 18.2565 66.7637 17.9102C66.6361 17.5638 66.4395 17.2839 66.1738 17.0703C65.9082 16.8568 65.5697 16.75 65.1582 16.75C64.7467 16.75 64.4082 16.8568 64.1426 17.0703C63.877 17.2839 63.6803 17.5638 63.5527 17.9102C63.4251 18.2565 63.3613 18.6302 63.3613 19.0312C63.3613 19.4323 63.4251 19.8047 63.5527 20.1484C63.6803 20.4922 63.877 20.7695 64.1426 20.9805C64.4082 21.1914 64.7467 21.2969 65.1582 21.2969ZM72.7217 18.1406V19H69.2217V18.1406H72.7217ZM76.7656 24.375C76.3203 24.375 75.9375 24.3177 75.6172 24.2031C75.2969 24.0911 75.0299 23.9427 74.8164 23.7578C74.6055 23.5755 74.4375 23.3802 74.3125 23.1719L75.0469 22.6563C75.1302 22.7656 75.2357 22.8906 75.3633 23.0312C75.4909 23.1745 75.6654 23.2982 75.8867 23.4023C76.1107 23.5091 76.4036 23.5625 76.7656 23.5625C77.25 23.5625 77.6497 23.4453 77.9648 23.2109C78.2799 22.9766 78.4375 22.6094 78.4375 22.1094V20.8906H78.3594C78.2917 21 78.1953 21.1354 78.0703 21.2969C77.9479 21.4557 77.7708 21.5977 77.5391 21.7227C77.3099 21.8451 77 21.9062 76.6094 21.9062C76.125 21.9062 75.6901 21.7917 75.3047 21.5625C74.9219 21.3333 74.6185 21 74.3945 20.5625C74.1732 20.125 74.0625 19.5937 74.0625 18.9687C74.0625 18.3542 74.1706 17.819 74.3867 17.3633C74.6029 16.9049 74.9036 16.5508 75.2891 16.3008C75.6745 16.0482 76.1198 15.9219 76.625 15.9219C77.0156 15.9219 77.3255 15.987 77.5547 16.1172C77.7865 16.2448 77.9635 16.3906 78.0859 16.5547C78.2109 16.7161 78.3073 16.849 78.375 16.9531H78.4688V16H79.3594V22.1719C79.3594 22.6875 79.2422 23.1068 79.0078 23.4297C78.776 23.7552 78.4635 23.9935 78.0703 24.1445C77.6797 24.2982 77.2448 24.375 76.7656 24.375ZM76.7344 21.0781C77.1042 21.0781 77.4167 20.9935 77.6719 20.8242C77.9271 20.6549 78.1211 20.4115 78.2539 20.0938C78.3867 19.776 78.4531 19.3958 78.4531 18.9531C78.4531 18.5208 78.388 18.1393 78.2578 17.8086C78.1276 17.4779 77.9349 17.2187 77.6797 17.0312C77.4245 16.8437 77.1094 16.75 76.7344 16.75C76.3438 16.75 76.0182 16.849 75.7578 17.0469C75.5 17.2448 75.306 17.5104 75.1758 17.8438C75.0482 18.1771 74.9844 18.5469 74.9844 18.9531C74.9844 19.3698 75.0495 19.7383 75.1797 20.0586C75.3125 20.3763 75.5078 20.6263 75.7656 20.8086C76.026 20.9883 76.349 21.0781 76.7344 21.0781ZM82.8125 22.1406C82.4323 22.1406 82.0872 22.069 81.7773 21.9258C81.4674 21.7799 81.2214 21.5703 81.0391 21.2969C80.8568 21.0208 80.7656 20.6875 80.7656 20.2969C80.7656 19.9531 80.8333 19.6745 80.9688 19.4609C81.1042 19.2448 81.2852 19.0755 81.5117 18.9531C81.7383 18.8307 81.9883 18.7396 82.2617 18.6797C82.5378 18.6172 82.8151 18.5677 83.0938 18.5313C83.4583 18.4844 83.7539 18.4492 83.9805 18.4258C84.2096 18.3997 84.3763 18.3568 84.4805 18.2969C84.5872 18.237 84.6406 18.1328 84.6406 17.9844V17.9531C84.6406 17.5677 84.5352 17.2682 84.3242 17.0547C84.1159 16.8411 83.7995 16.7344 83.375 16.7344C82.9349 16.7344 82.5898 16.8307 82.3398 17.0234C82.0898 17.2161 81.9141 17.4219 81.8125 17.6406L80.9375 17.3281C81.0938 16.9635 81.3021 16.6797 81.5625 16.4766C81.8255 16.2708 82.112 16.1276 82.4219 16.0469C82.7344 15.9635 83.0417 15.9219 83.3438 15.9219C83.5365 15.9219 83.7578 15.9453 84.0078 15.9922C84.2604 16.0365 84.5039 16.1289 84.7383 16.2695C84.9753 16.4102 85.1719 16.6224 85.3281 16.9062C85.4844 17.1901 85.5625 17.5703 85.5625 18.0469V22H84.6406V21.1875H84.5938C84.5313 21.3177 84.4271 21.457 84.2813 21.6055C84.1354 21.7539 83.9414 21.8802 83.6992 21.9844C83.457 22.0885 83.1615 22.1406 82.8125 22.1406ZM82.9531 21.3125C83.3177 21.3125 83.625 21.2409 83.875 21.0977C84.1276 20.9544 84.3177 20.7695 84.4453 20.543C84.5755 20.3164 84.6406 20.0781 84.6406 19.8281V18.9844C84.6016 19.0312 84.5156 19.0742 84.3828 19.1133C84.2526 19.1497 84.1016 19.1823 83.9297 19.2109C83.7604 19.237 83.5951 19.2604 83.4336 19.2812C83.2747 19.2995 83.1458 19.3151 83.0469 19.3281C82.8073 19.3594 82.5833 19.4102 82.375 19.4805C82.1693 19.5482 82.0026 19.651 81.875 19.7891C81.75 19.9245 81.6875 20.1094 81.6875 20.3437C81.6875 20.6641 81.806 20.9062 82.043 21.0703C82.2826 21.2318 82.5859 21.3125 82.9531 21.3125ZM87.2451 22V16H88.1357V16.9375H88.2139C88.3389 16.6172 88.5407 16.3685 88.8193 16.1914C89.098 16.0117 89.4326 15.9219 89.8232 15.9219C90.2191 15.9219 90.5485 16.0117 90.8115 16.1914C91.0771 16.3685 91.2842 16.6172 91.4326 16.9375H91.4951C91.6488 16.6276 91.8792 16.3815 92.1865 16.1992C92.4938 16.0143 92.8623 15.9219 93.292 15.9219C93.8285 15.9219 94.2673 16.0898 94.6084 16.4258C94.9495 16.7591 95.1201 17.2786 95.1201 17.9844V22H94.1982V17.9844C94.1982 17.5417 94.0771 17.2253 93.835 17.0352C93.5928 16.8451 93.3076 16.75 92.9795 16.75C92.5576 16.75 92.2308 16.8776 91.999 17.1328C91.7673 17.3854 91.6514 17.7057 91.6514 18.0937V22H90.7139V17.8906C90.7139 17.5495 90.6032 17.2747 90.3818 17.0664C90.1605 16.8555 89.8753 16.75 89.5264 16.75C89.2868 16.75 89.0628 16.8138 88.8545 16.9414C88.6488 17.069 88.4821 17.2461 88.3545 17.4727C88.2295 17.6966 88.167 17.9557 88.167 18.25V22H87.2451ZM99.3213 22.125C98.7432 22.125 98.2445 21.9974 97.8252 21.7422C97.4085 21.4844 97.0869 21.125 96.8604 20.6641C96.6364 20.2005 96.5244 19.6615 96.5244 19.0469C96.5244 18.4323 96.6364 17.8906 96.8604 17.4219C97.0869 16.9505 97.402 16.5833 97.8057 16.3203C98.2119 16.0547 98.6859 15.9219 99.2275 15.9219C99.54 15.9219 99.8486 15.974 100.153 16.0781C100.458 16.1823 100.735 16.3516 100.985 16.5859C101.235 16.8177 101.435 17.125 101.583 17.5078C101.731 17.8906 101.806 18.362 101.806 18.9219V19.3125H97.1807V18.5156H100.868C100.868 18.1771 100.8 17.875 100.665 17.6094C100.532 17.3437 100.342 17.1341 100.095 16.9805C99.8499 16.8268 99.5609 16.75 99.2275 16.75C98.8604 16.75 98.5426 16.8411 98.2744 17.0234C98.0088 17.2031 97.8044 17.4375 97.6611 17.7266C97.5179 18.0156 97.4463 18.3255 97.4463 18.6562V19.1875C97.4463 19.6406 97.5244 20.0247 97.6807 20.3398C97.8395 20.6523 98.0596 20.8906 98.3408 21.0547C98.6221 21.2161 98.9489 21.2969 99.3213 21.2969C99.5635 21.2969 99.7822 21.263 99.9775 21.1953C100.175 21.125 100.346 21.0208 100.489 20.8828C100.632 20.7422 100.743 20.5677 100.821 20.3594L101.712 20.6094C101.618 20.9115 101.461 21.1771 101.239 21.4062C101.018 21.6328 100.744 21.8099 100.419 21.9375C100.093 22.0625 99.7275 22.125 99.3213 22.125ZM103.333 22V14H104.255V16.9531H104.333C104.401 16.849 104.494 16.7161 104.614 16.5547C104.737 16.3906 104.911 16.2448 105.138 16.1172C105.367 15.987 105.677 15.9219 106.067 15.9219C106.573 15.9219 107.018 16.0482 107.403 16.3008C107.789 16.5534 108.09 16.9115 108.306 17.375C108.522 17.8385 108.63 18.3854 108.63 19.0156C108.63 19.651 108.522 20.2018 108.306 20.668C108.09 21.1315 107.79 21.4909 107.407 21.7461C107.024 21.9987 106.583 22.125 106.083 22.125C105.698 22.125 105.389 22.0612 105.157 21.9336C104.925 21.8034 104.747 21.6562 104.622 21.4922C104.497 21.3255 104.401 21.1875 104.333 21.0781H104.224V22H103.333ZM104.239 19C104.239 19.4531 104.306 19.8529 104.438 20.1992C104.571 20.543 104.765 20.8125 105.021 21.0078C105.276 21.2005 105.588 21.2969 105.958 21.2969C106.343 21.2969 106.665 21.1953 106.923 20.9922C107.183 20.7865 107.379 20.5104 107.509 20.1641C107.642 19.8151 107.708 19.4271 107.708 19C107.708 18.5781 107.643 18.1979 107.513 17.8594C107.385 17.5182 107.191 17.2487 106.931 17.0508C106.673 16.8503 106.349 16.75 105.958 16.75C105.583 16.75 105.268 16.8451 105.013 17.0352C104.757 17.2227 104.565 17.4857 104.435 17.8242C104.304 18.1602 104.239 18.5521 104.239 19ZM110.419 24.25C110.263 24.25 110.123 24.237 110.001 24.2109C109.879 24.1875 109.794 24.1641 109.747 24.1406L109.981 23.3281C110.205 23.3854 110.403 23.4063 110.575 23.3906C110.747 23.375 110.899 23.2982 111.032 23.1602C111.168 23.0247 111.291 22.8047 111.403 22.5L111.575 22.0313L109.356 16H110.356L112.013 20.7812H112.075L113.731 16H114.731L112.185 22.875C112.07 23.1849 111.928 23.4414 111.759 23.6445C111.59 23.8503 111.393 24.0026 111.169 24.1016C110.948 24.2005 110.698 24.25 110.419 24.25ZM118.558 16V16.7812H115.448V16H118.558ZM116.354 14.5625H117.276V20.2812C117.276 20.5417 117.314 20.737 117.39 20.8672C117.468 20.9948 117.567 21.0807 117.687 21.125C117.809 21.1667 117.938 21.1875 118.073 21.1875C118.175 21.1875 118.258 21.1823 118.323 21.1719C118.388 21.1589 118.44 21.1484 118.479 21.1406L118.667 21.9687C118.604 21.9922 118.517 22.0156 118.405 22.0391C118.293 22.0651 118.151 22.0781 117.979 22.0781C117.719 22.0781 117.464 22.0221 117.214 21.9102C116.966 21.7982 116.761 21.6276 116.597 21.3984C116.435 21.1693 116.354 20.8802 116.354 20.5312V14.5625ZM122.396 22.125C121.817 22.125 121.319 21.9974 120.899 21.7422C120.483 21.4844 120.161 21.125 119.935 20.6641C119.711 20.2005 119.599 19.6615 119.599 19.0469C119.599 18.4323 119.711 17.8906 119.935 17.4219C120.161 16.9505 120.476 16.5833 120.88 16.3203C121.286 16.0547 121.76 15.9219 122.302 15.9219C122.614 15.9219 122.923 15.974 123.228 16.0781C123.532 16.1823 123.81 16.3516 124.06 16.5859C124.31 16.8177 124.509 17.125 124.657 17.5078C124.806 17.8906 124.88 18.362 124.88 18.9219V19.3125H120.255V18.5156H123.942C123.942 18.1771 123.875 17.875 123.739 17.6094C123.606 17.3437 123.416 17.1341 123.169 16.9805C122.924 16.8268 122.635 16.75 122.302 16.75C121.935 16.75 121.617 16.8411 121.349 17.0234C121.083 17.2031 120.879 17.4375 120.735 17.7266C120.592 18.0156 120.521 18.3255 120.521 18.6562V19.1875C120.521 19.6406 120.599 20.0247 120.755 20.3398C120.914 20.6523 121.134 20.8906 121.415 21.0547C121.696 21.2161 122.023 21.2969 122.396 21.2969C122.638 21.2969 122.856 21.263 123.052 21.1953C123.25 21.125 123.42 21.0208 123.563 20.8828C123.707 20.7422 123.817 20.5677 123.896 20.3594L124.786 20.6094C124.692 20.9115 124.535 21.1771 124.313 21.4062C124.092 21.6328 123.819 21.8099 123.493 21.9375C123.168 22.0625 122.802 22.125 122.396 22.125ZM132.173 14V22H131.204V15.0156H131.157L129.204 16.3125V15.3281L131.204 14H132.173Z" fill="white"/>
</svg>
